<?xml version="1.0" encoding="utf-8" standalone="no"?>
<!DOCTYPE svg PUBLIC "-//W3C//DTD SVG 1.1//EN"
  "http://www.w3.org/Graphics/SVG/1.1/DTD/svg11.dtd">
<svg xmlns:xlink="http://www.w3.org/1999/xlink" width="432pt" height="288pt" viewBox="0 0 432 288" xmlns="http://www.w3.org/2000/svg" version="1.1">
 <metadata>
  <rdf:RDF xmlns:dc="http://purl.org/dc/elements/1.1/" xmlns:cc="http://creativecommons.org/ns#" xmlns:rdf="http://www.w3.org/1999/02/22-rdf-syntax-ns#">
   <cc:Work>
    <dc:type rdf:resource="http://purl.org/dc/dcmitype/StillImage"/>
    <dc:date>2025-05-22T14:38:49.614883</dc:date>
    <dc:format>image/svg+xml</dc:format>
    <dc:creator>
     <cc:Agent>
      <dc:title>Matplotlib v3.10.3, https://matplotlib.org/</dc:title>
     </cc:Agent>
    </dc:creator>
   </cc:Work>
  </rdf:RDF>
 </metadata>
 <defs>
  <style type="text/css">*{stroke-linejoin: round; stroke-linecap: butt}</style>
 </defs>
 <g id="figure_1">
  <g id="patch_1">
   <path d="M 0 288 
L 432 288 
L 432 0 
L 0 0 
L 0 288 
z
" style="fill: none"/>
  </g>
  <g id="axes_1">
   <g id="patch_2">
    <path d="M 50.567813 239.936875 
L 417.092818 239.936875 
L 417.092818 10.8 
L 50.567813 10.8 
L 50.567813 239.936875 
z
" style="fill: none"/>
   </g>
   <g id="matplotlib.axis_1">
    <g id="xtick_1">
     <g id="line2d_1">
      <defs>
       <path id="me219efda1f" d="M 0 0 
L 0 3.5 
" style="stroke: #000000; stroke-width: 0.8"/>
      </defs>
      <g>
       <use xlink:href="#me219efda1f" x="52.156587" y="239.936875" style="stroke: #000000; stroke-width: 0.8"/>
      </g>
     </g>
     <g id="text_1">
      <!-- 0 -->
      <g transform="translate(49.185493 254.216562) scale(0.1 -0.1)">
       <defs>
        <path id="ArialRoundedMTBold-30" d="M 3500 2247 
Q 3500 1734 3437 1365 
Q 3375 997 3206 697 
Q 2994 328 2656 128 
Q 2319 -72 1906 -72 
Q 1431 -72 1054 197 
Q 678 466 488 941 
Q 391 1200 345 1514 
Q 300 1828 300 2194 
Q 300 2666 350 3044 
Q 400 3422 506 3694 
Q 691 4144 1042 4380 
Q 1394 4616 1881 4616 
Q 2203 4616 2465 4511 
Q 2728 4406 2926 4204 
Q 3125 4003 3263 3706 
Q 3500 3191 3500 2247 
z
M 2644 2309 
Q 2644 2881 2575 3245 
Q 2506 3609 2343 3795 
Q 2181 3981 1894 3981 
Q 1481 3981 1320 3565 
Q 1159 3150 1159 2284 
Q 1159 1697 1228 1322 
Q 1297 947 1459 755 
Q 1622 563 1900 563 
Q 2188 563 2350 763 
Q 2513 963 2578 1334 
Q 2644 1706 2644 2309 
z
" transform="scale(0.015625)"/>
       </defs>
       <use xlink:href="#ArialRoundedMTBold-30"/>
      </g>
     </g>
    </g>
    <g id="xtick_2">
     <g id="line2d_2">
      <g>
       <use xlink:href="#me219efda1f" x="112.644478" y="239.936875" style="stroke: #000000; stroke-width: 0.8"/>
      </g>
     </g>
     <g id="text_2">
      <!-- 5 -->
      <g transform="translate(109.673384 254.216562) scale(0.1 -0.1)">
       <defs>
        <path id="ArialRoundedMTBold-35" d="M 2963 3809 
L 1478 3809 
L 1300 2797 
Q 1744 3034 2119 3034 
Q 2419 3034 2680 2921 
Q 2941 2809 3137 2611 
Q 3334 2413 3446 2141 
Q 3559 1869 3559 1556 
Q 3559 1103 3356 731 
Q 3153 359 2770 140 
Q 2388 -78 1888 -78 
Q 1328 -78 979 128 
Q 631 334 486 601 
Q 341 869 341 1069 
Q 341 1191 442 1300 
Q 544 1409 697 1409 
Q 959 1409 1088 1106 
Q 1213 828 1425 673 
Q 1638 519 1900 519 
Q 2141 519 2322 644 
Q 2503 769 2601 987 
Q 2700 1206 2700 1484 
Q 2700 1784 2594 1996 
Q 2488 2209 2309 2314 
Q 2131 2419 1913 2419 
Q 1644 2419 1528 2353 
Q 1413 2288 1195 2123 
Q 978 1959 838 1959 
Q 684 1959 565 2070 
Q 447 2181 447 2322 
Q 447 2338 481 2534 
L 744 4031 
Q 788 4300 906 4422 
Q 1025 4544 1294 4544 
L 2944 4544 
Q 3431 4544 3431 4172 
Q 3431 4009 3312 3909 
Q 3194 3809 2963 3809 
z
" transform="scale(0.015625)"/>
       </defs>
       <use xlink:href="#ArialRoundedMTBold-35"/>
      </g>
     </g>
    </g>
    <g id="xtick_3">
     <g id="line2d_3">
      <g>
       <use xlink:href="#me219efda1f" x="173.132368" y="239.936875" style="stroke: #000000; stroke-width: 0.8"/>
      </g>
     </g>
     <g id="text_3">
      <!-- 10 -->
      <g transform="translate(167.190181 254.216562) scale(0.1 -0.1)">
       <defs>
        <path id="ArialRoundedMTBold-31" d="M 1806 428 
L 1806 3272 
Q 1013 2663 738 2663 
Q 606 2663 504 2767 
Q 403 2872 403 3009 
Q 403 3169 503 3244 
Q 603 3319 856 3438 
Q 1234 3616 1461 3812 
Q 1688 4009 1863 4253 
Q 2038 4497 2091 4553 
Q 2144 4609 2291 4609 
Q 2456 4609 2556 4481 
Q 2656 4353 2656 4128 
L 2656 550 
Q 2656 -78 2228 -78 
Q 2038 -78 1922 50 
Q 1806 178 1806 428 
z
" transform="scale(0.015625)"/>
       </defs>
       <use xlink:href="#ArialRoundedMTBold-31"/>
       <use xlink:href="#ArialRoundedMTBold-30" transform="translate(59.423828 0)"/>
      </g>
     </g>
    </g>
    <g id="xtick_4">
     <g id="line2d_4">
      <g>
       <use xlink:href="#me219efda1f" x="233.620259" y="239.936875" style="stroke: #000000; stroke-width: 0.8"/>
      </g>
     </g>
     <g id="text_4">
      <!-- 15 -->
      <g transform="translate(227.678071 254.216562) scale(0.1 -0.1)">
       <use xlink:href="#ArialRoundedMTBold-31"/>
       <use xlink:href="#ArialRoundedMTBold-35" transform="translate(59.423828 0)"/>
      </g>
     </g>
    </g>
    <g id="xtick_5">
     <g id="line2d_5">
      <g>
       <use xlink:href="#me219efda1f" x="294.10815" y="239.936875" style="stroke: #000000; stroke-width: 0.8"/>
      </g>
     </g>
     <g id="text_5">
      <!-- 20 -->
      <g transform="translate(288.165962 254.216562) scale(0.1 -0.1)">
       <defs>
        <path id="ArialRoundedMTBold-32" d="M 1428 738 
L 3059 738 
Q 3303 738 3431 638 
Q 3559 538 3559 366 
Q 3559 213 3457 106 
Q 3356 0 3150 0 
L 850 0 
Q 616 0 484 129 
Q 353 259 353 434 
Q 353 547 437 733 
Q 522 919 622 1025 
Q 1038 1456 1372 1764 
Q 1706 2072 1850 2169 
Q 2106 2350 2276 2533 
Q 2447 2716 2536 2908 
Q 2625 3100 2625 3284 
Q 2625 3484 2529 3642 
Q 2434 3800 2270 3887 
Q 2106 3975 1913 3975 
Q 1503 3975 1269 3616 
Q 1238 3569 1164 3359 
Q 1091 3150 998 3037 
Q 906 2925 728 2925 
Q 572 2925 469 3028 
Q 366 3131 366 3309 
Q 366 3525 462 3759 
Q 559 3994 751 4184 
Q 944 4375 1239 4492 
Q 1534 4609 1931 4609 
Q 2409 4609 2747 4459 
Q 2966 4359 3131 4184 
Q 3297 4009 3389 3779 
Q 3481 3550 3481 3303 
Q 3481 2916 3289 2598 
Q 3097 2281 2897 2101 
Q 2697 1922 2226 1537 
Q 1756 1153 1581 941 
Q 1506 856 1428 738 
z
" transform="scale(0.015625)"/>
       </defs>
       <use xlink:href="#ArialRoundedMTBold-32"/>
       <use xlink:href="#ArialRoundedMTBold-30" transform="translate(59.423828 0)"/>
      </g>
     </g>
    </g>
    <g id="xtick_6">
     <g id="line2d_6">
      <g>
       <use xlink:href="#me219efda1f" x="354.59604" y="239.936875" style="stroke: #000000; stroke-width: 0.8"/>
      </g>
     </g>
     <g id="text_6">
      <!-- 25 -->
      <g transform="translate(348.653853 254.216562) scale(0.1 -0.1)">
       <use xlink:href="#ArialRoundedMTBold-32"/>
       <use xlink:href="#ArialRoundedMTBold-35" transform="translate(59.423828 0)"/>
      </g>
     </g>
    </g>
    <g id="xtick_7">
     <g id="line2d_7">
      <g>
       <use xlink:href="#me219efda1f" x="415.083931" y="239.936875" style="stroke: #000000; stroke-width: 0.8"/>
      </g>
     </g>
     <g id="text_7">
      <!-- 30 -->
      <g transform="translate(409.141743 254.216562) scale(0.1 -0.1)">
       <defs>
        <path id="ArialRoundedMTBold-33" d="M 1753 2766 
Q 2041 2766 2248 2934 
Q 2456 3103 2456 3419 
Q 2456 3659 2290 3832 
Q 2125 4006 1844 4006 
Q 1653 4006 1529 3953 
Q 1406 3900 1334 3812 
Q 1263 3725 1198 3587 
Q 1134 3450 1081 3328 
Q 1050 3263 969 3225 
Q 888 3188 781 3188 
Q 656 3188 551 3289 
Q 447 3391 447 3559 
Q 447 3722 545 3901 
Q 644 4081 833 4243 
Q 1022 4406 1303 4504 
Q 1584 4603 1931 4603 
Q 2234 4603 2484 4520 
Q 2734 4438 2918 4281 
Q 3103 4125 3197 3919 
Q 3291 3713 3291 3475 
Q 3291 3163 3155 2939 
Q 3019 2716 2766 2503 
Q 3009 2372 3176 2203 
Q 3344 2034 3428 1829 
Q 3513 1625 3513 1388 
Q 3513 1103 3398 837 
Q 3284 572 3062 364 
Q 2841 156 2536 39 
Q 2231 -78 1863 -78 
Q 1488 -78 1191 56 
Q 894 191 701 392 
Q 509 594 411 809 
Q 313 1025 313 1166 
Q 313 1347 430 1458 
Q 547 1569 722 1569 
Q 809 1569 890 1517 
Q 972 1466 997 1394 
Q 1159 959 1345 748 
Q 1531 538 1869 538 
Q 2063 538 2242 633 
Q 2422 728 2539 915 
Q 2656 1103 2656 1350 
Q 2656 1716 2456 1923 
Q 2256 2131 1900 2131 
Q 1838 2131 1706 2118 
Q 1575 2106 1538 2106 
Q 1366 2106 1272 2192 
Q 1178 2278 1178 2431 
Q 1178 2581 1290 2673 
Q 1403 2766 1625 2766 
L 1753 2766 
z
" transform="scale(0.015625)"/>
       </defs>
       <use xlink:href="#ArialRoundedMTBold-33"/>
       <use xlink:href="#ArialRoundedMTBold-30" transform="translate(59.423828 0)"/>
      </g>
     </g>
    </g>
    <g id="text_8">
     <!-- Time (s) -->
     <g transform="translate(199.077659 273.42) scale(0.18 -0.18)">
      <defs>
       <path id="ArialRoundedMTBold-54" d="M 3475 3816 
L 2463 3816 
L 2463 488 
Q 2463 200 2334 61 
Q 2206 -78 2003 -78 
Q 1797 -78 1667 62 
Q 1538 203 1538 488 
L 1538 3816 
L 525 3816 
Q 288 3816 172 3920 
Q 56 4025 56 4197 
Q 56 4375 176 4478 
Q 297 4581 525 4581 
L 3475 4581 
Q 3716 4581 3833 4475 
Q 3950 4369 3950 4197 
Q 3950 4025 3831 3920 
Q 3713 3816 3475 3816 
z
" transform="scale(0.015625)"/>
       <path id="ArialRoundedMTBold-69" d="M 1294 2906 
L 1294 441 
Q 1294 184 1172 53 
Q 1050 -78 863 -78 
Q 675 -78 558 56 
Q 441 191 441 441 
L 441 2881 
Q 441 3134 558 3262 
Q 675 3391 863 3391 
Q 1050 3391 1172 3262 
Q 1294 3134 1294 2906 
z
M 872 3788 
Q 694 3788 567 3897 
Q 441 4006 441 4206 
Q 441 4388 570 4505 
Q 700 4622 872 4622 
Q 1038 4622 1166 4515 
Q 1294 4409 1294 4206 
Q 1294 4009 1169 3898 
Q 1044 3788 872 3788 
z
" transform="scale(0.015625)"/>
       <path id="ArialRoundedMTBold-6d" d="M 3278 1594 
L 3278 459 
Q 3278 191 3156 56 
Q 3034 -78 2834 -78 
Q 2641 -78 2520 56 
Q 2400 191 2400 459 
L 2400 1819 
Q 2400 2141 2378 2319 
Q 2356 2497 2259 2611 
Q 2163 2725 1953 2725 
Q 1534 2725 1401 2437 
Q 1269 2150 1269 1613 
L 1269 459 
Q 1269 194 1148 58 
Q 1028 -78 831 -78 
Q 638 -78 514 58 
Q 391 194 391 459 
L 391 2900 
Q 391 3141 502 3266 
Q 613 3391 794 3391 
Q 969 3391 1086 3273 
Q 1203 3156 1203 2950 
L 1203 2869 
Q 1425 3134 1678 3259 
Q 1931 3384 2241 3384 
Q 2563 3384 2794 3256 
Q 3025 3128 3175 2869 
Q 3391 3131 3637 3257 
Q 3884 3384 4184 3384 
Q 4534 3384 4787 3246 
Q 5041 3109 5166 2853 
Q 5275 2622 5275 2125 
L 5275 459 
Q 5275 191 5153 56 
Q 5031 -78 4831 -78 
Q 4638 -78 4514 58 
Q 4391 194 4391 459 
L 4391 1894 
Q 4391 2169 4367 2334 
Q 4344 2500 4241 2612 
Q 4138 2725 3928 2725 
Q 3759 2725 3607 2625 
Q 3456 2525 3372 2356 
Q 3278 2141 3278 1594 
z
" transform="scale(0.015625)"/>
       <path id="ArialRoundedMTBold-65" d="M 2822 1447 
L 1153 1447 
Q 1156 1156 1270 934 
Q 1384 713 1573 600 
Q 1763 488 1991 488 
Q 2144 488 2270 523 
Q 2397 559 2515 636 
Q 2634 713 2734 800 
Q 2834 888 2994 1038 
Q 3059 1094 3181 1094 
Q 3313 1094 3394 1022 
Q 3475 950 3475 819 
Q 3475 703 3384 548 
Q 3294 394 3111 251 
Q 2928 109 2651 15 
Q 2375 -78 2016 -78 
Q 1194 -78 737 390 
Q 281 859 281 1663 
Q 281 2041 393 2364 
Q 506 2688 722 2919 
Q 938 3150 1253 3273 
Q 1569 3397 1953 3397 
Q 2453 3397 2811 3186 
Q 3169 2975 3347 2640 
Q 3525 2306 3525 1959 
Q 3525 1638 3340 1542 
Q 3156 1447 2822 1447 
z
M 1153 1931 
L 2700 1931 
Q 2669 2369 2464 2586 
Q 2259 2803 1925 2803 
Q 1606 2803 1401 2583 
Q 1197 2363 1153 1931 
z
" transform="scale(0.015625)"/>
       <path id="ArialRoundedMTBold-20" transform="scale(0.015625)"/>
       <path id="ArialRoundedMTBold-28" d="M 403 1656 
Q 403 2128 484 2539 
Q 566 2950 731 3348 
Q 897 3747 1141 4147 
Q 1288 4391 1388 4498 
Q 1488 4606 1577 4632 
Q 1666 4659 1806 4659 
Q 1959 4659 1959 4575 
Q 1959 4547 1815 4236 
Q 1672 3925 1545 3584 
Q 1419 3244 1311 2734 
Q 1203 2225 1203 1656 
Q 1203 1094 1309 591 
Q 1416 88 1552 -281 
Q 1688 -650 1823 -942 
Q 1959 -1234 1959 -1259 
Q 1959 -1344 1806 -1344 
Q 1663 -1344 1573 -1314 
Q 1484 -1284 1387 -1175 
Q 1291 -1066 1141 -825 
Q 894 -413 733 -30 
Q 572 353 487 765 
Q 403 1178 403 1656 
z
" transform="scale(0.015625)"/>
       <path id="ArialRoundedMTBold-73" d="M 3188 1038 
Q 3188 684 3016 432 
Q 2844 181 2508 51 
Q 2172 -78 1691 -78 
Q 1231 -78 903 62 
Q 575 203 419 414 
Q 263 625 263 838 
Q 263 978 363 1078 
Q 463 1178 616 1178 
Q 750 1178 822 1112 
Q 894 1047 959 928 
Q 1091 700 1273 587 
Q 1456 475 1772 475 
Q 2028 475 2192 589 
Q 2356 703 2356 850 
Q 2356 1075 2186 1178 
Q 2016 1281 1625 1375 
Q 1184 1484 907 1604 
Q 631 1725 465 1922 
Q 300 2119 300 2406 
Q 300 2663 453 2891 
Q 606 3119 904 3255 
Q 1203 3391 1625 3391 
Q 1956 3391 2220 3322 
Q 2484 3253 2661 3137 
Q 2838 3022 2930 2881 
Q 3022 2741 3022 2606 
Q 3022 2459 2923 2365 
Q 2825 2272 2644 2272 
Q 2513 2272 2420 2347 
Q 2328 2422 2209 2572 
Q 2113 2697 1981 2772 
Q 1850 2847 1625 2847 
Q 1394 2847 1241 2748 
Q 1088 2650 1088 2503 
Q 1088 2369 1200 2283 
Q 1313 2197 1503 2140 
Q 1694 2084 2028 2003 
Q 2425 1906 2676 1772 
Q 2928 1638 3058 1455 
Q 3188 1272 3188 1038 
z
" transform="scale(0.015625)"/>
       <path id="ArialRoundedMTBold-29" d="M 1869 1656 
Q 1869 969 1686 378 
Q 1503 -213 1131 -825 
Q 922 -1169 800 -1256 
Q 678 -1344 469 -1344 
Q 313 -1344 313 -1259 
Q 313 -1231 444 -957 
Q 575 -684 717 -306 
Q 859 72 964 583 
Q 1069 1094 1069 1656 
Q 1069 2222 962 2734 
Q 856 3247 715 3622 
Q 575 3997 444 4273 
Q 313 4550 313 4575 
Q 313 4659 469 4659 
Q 688 4659 806 4576 
Q 925 4494 1131 4147 
Q 1316 3841 1453 3544 
Q 1591 3247 1683 2950 
Q 1775 2653 1822 2331 
Q 1869 2009 1869 1656 
z
" transform="scale(0.015625)"/>
      </defs>
      <use xlink:href="#ArialRoundedMTBold-54"/>
      <use xlink:href="#ArialRoundedMTBold-69" transform="translate(61.125 0)"/>
      <use xlink:href="#ArialRoundedMTBold-6d" transform="translate(88.224609 0)"/>
      <use xlink:href="#ArialRoundedMTBold-65" transform="translate(176.701172 0)"/>
      <use xlink:href="#ArialRoundedMTBold-20" transform="translate(236.125 0)"/>
      <use xlink:href="#ArialRoundedMTBold-28" transform="translate(261.125 0)"/>
      <use xlink:href="#ArialRoundedMTBold-73" transform="translate(296.525391 0)"/>
      <use xlink:href="#ArialRoundedMTBold-29" transform="translate(350.724609 0)"/>
     </g>
    </g>
   </g>
   <g id="matplotlib.axis_2">
    <g id="ytick_1">
     <g id="line2d_8">
      <defs>
       <path id="m4e1a8c5da9" d="M 0 0 
L -3.5 0 
" style="stroke: #000000; stroke-width: 0.8"/>
      </defs>
      <g>
       <use xlink:href="#m4e1a8c5da9" x="50.567813" y="229.521562" style="stroke: #000000; stroke-width: 0.8"/>
      </g>
     </g>
     <g id="text_9">
      <!-- 0 -->
      <g transform="translate(37.625625 233.161406) scale(0.1 -0.1)">
       <use xlink:href="#ArialRoundedMTBold-30"/>
      </g>
     </g>
    </g>
    <g id="ytick_2">
     <g id="line2d_9">
      <g>
       <use xlink:href="#m4e1a8c5da9" x="50.567813" y="182.179233" style="stroke: #000000; stroke-width: 0.8"/>
      </g>
     </g>
     <g id="text_10">
      <!-- 20 -->
      <g transform="translate(31.683438 185.819077) scale(0.1 -0.1)">
       <use xlink:href="#ArialRoundedMTBold-32"/>
       <use xlink:href="#ArialRoundedMTBold-30" transform="translate(59.423828 0)"/>
      </g>
     </g>
    </g>
    <g id="ytick_3">
     <g id="line2d_10">
      <g>
       <use xlink:href="#m4e1a8c5da9" x="50.567813" y="134.836903" style="stroke: #000000; stroke-width: 0.8"/>
      </g>
     </g>
     <g id="text_11">
      <!-- 40 -->
      <g transform="translate(31.683438 138.476747) scale(0.1 -0.1)">
       <defs>
        <path id="ArialRoundedMTBold-34" d="M 2241 397 
L 2241 978 
L 672 978 
Q 375 978 226 1112 
Q 78 1247 78 1478 
Q 78 1538 100 1598 
Q 122 1659 165 1726 
Q 209 1794 256 1856 
Q 303 1919 372 2009 
L 2028 4225 
Q 2191 4444 2295 4542 
Q 2400 4641 2547 4641 
Q 3022 4641 3022 4097 
L 3022 1678 
L 3156 1678 
Q 3397 1678 3542 1612 
Q 3688 1547 3688 1325 
Q 3688 1144 3569 1061 
Q 3450 978 3213 978 
L 3022 978 
L 3022 397 
Q 3022 156 2915 39 
Q 2809 -78 2631 -78 
Q 2456 -78 2348 42 
Q 2241 163 2241 397 
z
M 897 1678 
L 2241 1678 
L 2241 3494 
L 897 1678 
z
" transform="scale(0.015625)"/>
       </defs>
       <use xlink:href="#ArialRoundedMTBold-34"/>
       <use xlink:href="#ArialRoundedMTBold-30" transform="translate(59.423828 0)"/>
      </g>
     </g>
    </g>
    <g id="ytick_4">
     <g id="line2d_11">
      <g>
       <use xlink:href="#m4e1a8c5da9" x="50.567813" y="87.494574" style="stroke: #000000; stroke-width: 0.8"/>
      </g>
     </g>
     <g id="text_12">
      <!-- 60 -->
      <g transform="translate(31.683438 91.134418) scale(0.1 -0.1)">
       <defs>
        <path id="ArialRoundedMTBold-36" d="M 1159 2478 
Q 1372 2731 1622 2853 
Q 1872 2975 2181 2975 
Q 2478 2975 2729 2864 
Q 2981 2753 3170 2548 
Q 3359 2344 3462 2066 
Q 3566 1788 3566 1484 
Q 3566 1044 3364 684 
Q 3163 325 2802 123 
Q 2441 -78 1984 -78 
Q 1459 -78 1078 178 
Q 697 434 495 936 
Q 294 1438 294 2163 
Q 294 2753 416 3218 
Q 538 3684 766 3990 
Q 994 4297 1319 4453 
Q 1644 4609 2059 4609 
Q 2459 4609 2764 4453 
Q 3069 4297 3223 4065 
Q 3378 3834 3378 3622 
Q 3378 3494 3281 3389 
Q 3184 3284 3034 3284 
Q 2903 3284 2790 3367 
Q 2678 3450 2625 3597 
Q 2553 3784 2397 3898 
Q 2241 4013 2034 4013 
Q 1869 4013 1705 3917 
Q 1541 3822 1428 3659 
Q 1200 3328 1159 2478 
z
M 2003 538 
Q 2319 538 2525 795 
Q 2731 1053 2731 1472 
Q 2731 1756 2634 1961 
Q 2538 2166 2369 2273 
Q 2200 2381 1997 2381 
Q 1803 2381 1626 2278 
Q 1450 2175 1342 1979 
Q 1234 1784 1234 1522 
Q 1234 1100 1453 819 
Q 1672 538 2003 538 
z
" transform="scale(0.015625)"/>
       </defs>
       <use xlink:href="#ArialRoundedMTBold-36"/>
       <use xlink:href="#ArialRoundedMTBold-30" transform="translate(59.423828 0)"/>
      </g>
     </g>
    </g>
    <g id="ytick_5">
     <g id="line2d_12">
      <g>
       <use xlink:href="#m4e1a8c5da9" x="50.567813" y="40.152244" style="stroke: #000000; stroke-width: 0.8"/>
      </g>
     </g>
     <g id="text_13">
      <!-- 80 -->
      <g transform="translate(31.683438 43.792088) scale(0.1 -0.1)">
       <defs>
        <path id="ArialRoundedMTBold-38" d="M 428 3419 
Q 428 3731 598 4007 
Q 769 4284 1098 4450 
Q 1428 4616 1869 4616 
Q 2241 4616 2522 4519 
Q 2803 4422 2990 4251 
Q 3178 4081 3268 3867 
Q 3359 3653 3359 3413 
Q 3359 3106 3201 2865 
Q 3044 2625 2731 2472 
Q 2997 2369 3172 2201 
Q 3347 2034 3436 1814 
Q 3525 1594 3525 1325 
Q 3525 931 3334 611 
Q 3144 291 2775 109 
Q 2406 -72 1906 -72 
Q 1388 -72 1019 109 
Q 650 291 462 608 
Q 275 925 275 1319 
Q 275 2159 1069 2472 
Q 428 2772 428 3419 
z
M 2669 1350 
Q 2669 1594 2569 1775 
Q 2469 1956 2287 2053 
Q 2106 2150 1881 2150 
Q 1563 2150 1347 1937 
Q 1131 1725 1131 1344 
Q 1131 1100 1232 914 
Q 1334 728 1509 626 
Q 1684 525 1900 525 
Q 2119 525 2294 628 
Q 2469 731 2569 918 
Q 2669 1106 2669 1350 
z
M 1888 4019 
Q 1594 4019 1414 3836 
Q 1234 3653 1234 3366 
Q 1234 3100 1418 2923 
Q 1603 2747 1894 2747 
Q 2041 2747 2161 2794 
Q 2281 2841 2367 2923 
Q 2453 3006 2500 3120 
Q 2547 3234 2547 3372 
Q 2547 3556 2464 3703 
Q 2381 3850 2231 3934 
Q 2081 4019 1888 4019 
z
" transform="scale(0.015625)"/>
       </defs>
       <use xlink:href="#ArialRoundedMTBold-38"/>
       <use xlink:href="#ArialRoundedMTBold-30" transform="translate(59.423828 0)"/>
      </g>
     </g>
    </g>
    <g id="text_14">
     <!-- Blocks Found -->
     <g transform="translate(23.903438 183.823438) rotate(-90) scale(0.18 -0.18)">
      <defs>
       <path id="ArialRoundedMTBold-42" d="M 2456 0 
L 1056 0 
Q 753 0 623 136 
Q 494 272 494 569 
L 494 4013 
Q 494 4316 626 4448 
Q 759 4581 1056 4581 
L 2541 4581 
Q 2869 4581 3109 4540 
Q 3350 4500 3541 4384 
Q 3703 4288 3828 4139 
Q 3953 3991 4018 3811 
Q 4084 3631 4084 3431 
Q 4084 2744 3397 2425 
Q 4300 2138 4300 1306 
Q 4300 922 4103 614 
Q 3906 306 3572 159 
Q 3363 72 3091 36 
Q 2819 0 2456 0 
z
M 2388 2034 
L 1422 2034 
L 1422 697 
L 2419 697 
Q 3359 697 3359 1375 
Q 3359 1722 3115 1878 
Q 2872 2034 2388 2034 
z
M 1422 3884 
L 1422 2700 
L 2272 2700 
Q 2619 2700 2808 2765 
Q 2997 2831 3097 3016 
Q 3175 3147 3175 3309 
Q 3175 3656 2928 3770 
Q 2681 3884 2175 3884 
L 1422 3884 
z
" transform="scale(0.015625)"/>
       <path id="ArialRoundedMTBold-6c" d="M 441 441 
L 441 4141 
Q 441 4397 555 4528 
Q 669 4659 863 4659 
Q 1056 4659 1175 4529 
Q 1294 4400 1294 4141 
L 1294 441 
Q 1294 181 1173 51 
Q 1053 -78 863 -78 
Q 675 -78 558 56 
Q 441 191 441 441 
z
" transform="scale(0.015625)"/>
       <path id="ArialRoundedMTBold-6f" d="M 3634 1656 
Q 3634 1275 3515 953 
Q 3397 631 3172 400 
Q 2947 169 2634 45 
Q 2322 -78 1931 -78 
Q 1544 -78 1234 47 
Q 925 172 698 405 
Q 472 638 355 955 
Q 238 1272 238 1656 
Q 238 2044 356 2366 
Q 475 2688 697 2916 
Q 919 3144 1234 3267 
Q 1550 3391 1931 3391 
Q 2319 3391 2634 3266 
Q 2950 3141 3175 2909 
Q 3400 2678 3517 2359 
Q 3634 2041 3634 1656 
z
M 2778 1656 
Q 2778 2178 2548 2468 
Q 2319 2759 1931 2759 
Q 1681 2759 1490 2629 
Q 1300 2500 1197 2247 
Q 1094 1994 1094 1656 
Q 1094 1322 1195 1072 
Q 1297 822 1486 689 
Q 1675 556 1931 556 
Q 2319 556 2548 848 
Q 2778 1141 2778 1656 
z
" transform="scale(0.015625)"/>
       <path id="ArialRoundedMTBold-63" d="M 3500 978 
Q 3500 819 3404 637 
Q 3309 456 3114 292 
Q 2919 128 2622 28 
Q 2325 -72 1953 -72 
Q 1163 -72 719 389 
Q 275 850 275 1625 
Q 275 2150 478 2553 
Q 681 2956 1065 3176 
Q 1450 3397 1984 3397 
Q 2316 3397 2592 3300 
Q 2869 3203 3061 3050 
Q 3253 2897 3354 2723 
Q 3456 2550 3456 2400 
Q 3456 2247 3342 2140 
Q 3228 2034 3066 2034 
Q 2959 2034 2889 2089 
Q 2819 2144 2731 2266 
Q 2575 2503 2404 2622 
Q 2234 2741 1972 2741 
Q 1594 2741 1362 2445 
Q 1131 2150 1131 1638 
Q 1131 1397 1190 1195 
Q 1250 994 1362 851 
Q 1475 709 1634 636 
Q 1794 563 1984 563 
Q 2241 563 2423 681 
Q 2606 800 2747 1044 
Q 2825 1188 2915 1269 
Q 3006 1350 3138 1350 
Q 3294 1350 3397 1231 
Q 3500 1113 3500 978 
z
" transform="scale(0.015625)"/>
       <path id="ArialRoundedMTBold-6b" d="M 2566 313 
L 1813 1550 
L 1350 1113 
L 1350 434 
Q 1350 188 1220 55 
Q 1091 -78 922 -78 
Q 725 -78 612 53 
Q 500 184 500 441 
L 500 4078 
Q 500 4363 609 4511 
Q 719 4659 922 4659 
Q 1119 4659 1234 4525 
Q 1350 4391 1350 4128 
L 1350 2059 
L 2309 3066 
Q 2488 3253 2581 3322 
Q 2675 3391 2809 3391 
Q 2969 3391 3075 3289 
Q 3181 3188 3181 3034 
Q 3181 2847 2834 2534 
L 2381 2119 
L 3256 744 
Q 3353 591 3395 511 
Q 3438 431 3438 359 
Q 3438 156 3327 39 
Q 3216 -78 3034 -78 
Q 2878 -78 2793 6 
Q 2709 91 2566 313 
z
" transform="scale(0.015625)"/>
       <path id="ArialRoundedMTBold-46" d="M 3238 3866 
L 1409 3866 
L 1409 2694 
L 2938 2694 
Q 3150 2694 3254 2598 
Q 3359 2503 3359 2344 
Q 3359 2184 3253 2090 
Q 3147 1997 2938 1997 
L 1409 1997 
L 1409 488 
Q 1409 200 1279 61 
Q 1150 -78 947 -78 
Q 741 -78 611 62 
Q 481 203 481 488 
L 481 4013 
Q 481 4213 540 4339 
Q 600 4466 726 4523 
Q 853 4581 1050 4581 
L 3238 4581 
Q 3459 4581 3567 4482 
Q 3675 4384 3675 4225 
Q 3675 4063 3567 3964 
Q 3459 3866 3238 3866 
z
" transform="scale(0.015625)"/>
       <path id="ArialRoundedMTBold-75" d="M 2656 403 
L 2656 513 
Q 2503 319 2334 187 
Q 2166 56 1966 -8 
Q 1766 -72 1509 -72 
Q 1200 -72 954 56 
Q 709 184 575 409 
Q 416 681 416 1191 
L 416 2881 
Q 416 3138 531 3264 
Q 647 3391 838 3391 
Q 1031 3391 1150 3262 
Q 1269 3134 1269 2881 
L 1269 1516 
Q 1269 1219 1319 1017 
Q 1369 816 1498 702 
Q 1628 588 1850 588 
Q 2066 588 2256 716 
Q 2447 844 2534 1050 
Q 2606 1231 2606 1844 
L 2606 2881 
Q 2606 3134 2725 3262 
Q 2844 3391 3034 3391 
Q 3225 3391 3340 3264 
Q 3456 3138 3456 2881 
L 3456 409 
Q 3456 166 3345 44 
Q 3234 -78 3059 -78 
Q 2884 -78 2770 48 
Q 2656 175 2656 403 
z
" transform="scale(0.015625)"/>
       <path id="ArialRoundedMTBold-6e" d="M 1216 2919 
L 1216 2816 
Q 1441 3113 1708 3252 
Q 1975 3391 2322 3391 
Q 2659 3391 2925 3244 
Q 3191 3097 3322 2828 
Q 3406 2672 3431 2490 
Q 3456 2309 3456 2028 
L 3456 441 
Q 3456 184 3339 53 
Q 3222 -78 3034 -78 
Q 2844 -78 2725 56 
Q 2606 191 2606 441 
L 2606 1863 
Q 2606 2284 2489 2507 
Q 2372 2731 2022 2731 
Q 1794 2731 1606 2595 
Q 1419 2459 1331 2222 
Q 1269 2031 1269 1509 
L 1269 441 
Q 1269 181 1148 51 
Q 1028 -78 838 -78 
Q 653 -78 534 56 
Q 416 191 416 441 
L 416 2906 
Q 416 3150 522 3270 
Q 628 3391 813 3391 
Q 925 3391 1015 3337 
Q 1106 3284 1161 3178 
Q 1216 3072 1216 2919 
z
" transform="scale(0.015625)"/>
       <path id="ArialRoundedMTBold-64" d="M 2778 409 
L 2778 494 
Q 2606 297 2439 173 
Q 2272 50 2076 -14 
Q 1881 -78 1650 -78 
Q 1344 -78 1083 51 
Q 822 181 631 422 
Q 441 663 342 988 
Q 244 1313 244 1691 
Q 244 2491 634 2937 
Q 1025 3384 1663 3384 
Q 2031 3384 2284 3257 
Q 2538 3131 2778 2869 
L 2778 4128 
Q 2778 4391 2883 4525 
Q 2988 4659 3181 4659 
Q 3375 4659 3479 4536 
Q 3584 4413 3584 4172 
L 3584 409 
Q 3584 166 3471 44 
Q 3359 -78 3181 -78 
Q 3006 -78 2892 48 
Q 2778 175 2778 409 
z
M 1100 1663 
Q 1100 1316 1208 1072 
Q 1316 828 1503 704 
Q 1691 581 1913 581 
Q 2138 581 2323 698 
Q 2509 816 2620 1058 
Q 2731 1300 2731 1663 
Q 2731 2003 2620 2248 
Q 2509 2494 2320 2623 
Q 2131 2753 1906 2753 
Q 1672 2753 1487 2620 
Q 1303 2488 1201 2239 
Q 1100 1991 1100 1663 
z
" transform="scale(0.015625)"/>
      </defs>
      <use xlink:href="#ArialRoundedMTBold-42"/>
      <use xlink:href="#ArialRoundedMTBold-6c" transform="translate(71.923828 0)"/>
      <use xlink:href="#ArialRoundedMTBold-6f" transform="translate(99.023438 0)"/>
      <use xlink:href="#ArialRoundedMTBold-63" transform="translate(159.423828 0)"/>
      <use xlink:href="#ArialRoundedMTBold-6b" transform="translate(215.097656 0)"/>
      <use xlink:href="#ArialRoundedMTBold-73" transform="translate(269.921875 0)"/>
      <use xlink:href="#ArialRoundedMTBold-20" transform="translate(324.121094 0)"/>
      <use xlink:href="#ArialRoundedMTBold-46" transform="translate(349.121094 0)"/>
      <use xlink:href="#ArialRoundedMTBold-6f" transform="translate(405.771484 0)"/>
      <use xlink:href="#ArialRoundedMTBold-75" transform="translate(466.171875 0)"/>
      <use xlink:href="#ArialRoundedMTBold-6e" transform="translate(526.572266 0)"/>
      <use xlink:href="#ArialRoundedMTBold-64" transform="translate(586.972656 0)"/>
     </g>
    </g>
   </g>
   <g id="line2d_13">
    <path d="M 67.240755 229.521562 
L 67.272257 227.154446 
L 67.35354 224.78733 
L 67.367174 222.420213 
L 67.382708 220.053097 
L 67.402499 217.68598 
L 67.43365 215.318864 
L 67.459805 212.951747 
L 68.890586 210.584631 
L 68.909374 208.217514 
L 109.593384 205.850398 
L 109.662255 203.483281 
L 109.732881 201.116165 
L 109.756157 198.749048 
L 111.672715 196.381932 
L 111.70452 194.014815 
L 111.738708 191.647699 
L 111.749608 189.280582 
L 111.764621 186.913466 
L 111.788005 184.546349 
L 111.80493 182.179233 
L 111.824104 179.812116 
L 111.859018 177.445 
L 111.868454 175.077884 
L 111.879644 172.710767 
L 113.088047 170.343651 
L 113.113658 167.976534 
L 113.170855 165.609418 
L 113.192994 163.242301 
L 113.239243 160.875185 
L 114.354023 158.508068 
L 114.370524 156.140952 
L 114.384339 153.773835 
L 114.3979 151.406719 
L 114.425507 149.039602 
L 114.44738 146.672486 
L 114.479849 144.305369 
L 151.216408 141.938253 
L 151.226739 139.571136 
L 151.376931 137.20402 
L 153.362385 134.836903 
L 153.437136 132.469787 
L 153.473138 130.10267 
L 153.496692 127.735554 
L 154.821522 125.368437 
L 154.8361 123.001321 
L 154.850363 120.634205 
L 154.872211 118.267088 
L 154.894797 115.899972 
L 154.917202 113.532855 
L 154.940478 111.165739 
L 154.968701 108.798622 
L 154.985674 106.431506 
L 154.990017 104.064389 
L 154.996828 101.697273 
L 155.016027 99.330156 
L 155.03421 96.96304 
L 155.052272 94.595923 
L 156.316577 92.228807 
L 156.417943 89.86169 
L 157.651424 87.494574 
L 157.710944 85.127457 
L 157.768492 82.760341 
L 157.78434 80.393224 
L 157.815963 78.026108 
L 157.859478 75.658991 
L 159.828468 73.291875 
L 159.880137 70.924759 
L 159.931394 68.557642 
L 159.99043 66.190526 
L 160.006762 63.823409 
L 160.26236 61.456293 
L 160.303746 59.089176 
L 160.337631 56.72206 
L 161.627051 54.354943 
L 161.640225 51.987827 
L 161.681793 49.62071 
L 161.740901 47.253594 
L 161.772101 44.886477 
L 161.801789 42.519361 
L 161.830472 40.152244 
L 161.853058 37.785128 
L 163.082934 35.418011 
L 163.100548 33.050895 
L 400.410476 30.683778 
L 400.43259 28.316662 
" clip-path="url(#pa9fe509631)" style="fill: none; stroke: #0000ff; stroke-width: 2; stroke-linecap: square"/>
   </g>
   <g id="line2d_14">
    <path d="M 67.22804 229.521562 
L 67.255211 227.154446 
L 67.328777 224.78733 
L 67.348326 222.420213 
L 67.363134 220.053097 
L 67.38174 217.68598 
L 67.41479 215.318864 
L 67.442312 212.951747 
L 67.492662 210.584631 
L 67.509768 208.217514 
L 79.579994 205.850398 
L 79.592164 203.483281 
L 79.612669 201.116165 
L 79.640772 198.749048 
L 79.676387 196.381932 
L 79.712341 194.014815 
L 79.744461 191.647699 
L 79.755893 189.280582 
L 79.772116 186.913466 
L 79.789572 184.546349 
L 79.812909 182.179233 
L 79.832132 179.812116 
L 80.16842 177.445 
L 80.177602 175.077884 
L 80.187909 172.710767 
L 80.209141 170.343651 
L 80.231086 167.976534 
L 80.286553 165.609418 
L 80.310736 163.242301 
L 80.357759 160.875185 
L 80.396859 158.508068 
L 80.427139 156.140952 
L 80.463662 153.773835 
L 80.480997 151.406719 
L 80.503838 149.039602 
L 80.525274 146.672486 
L 80.569334 144.305369 
L 88.567744 141.938253 
L 88.589363 139.571136 
L 88.660968 137.20402 
L 88.789626 134.836903 
L 88.843025 132.469787 
L 89.086271 130.10267 
L 89.108131 127.735554 
L 89.126919 125.368437 
L 89.13829 123.001321 
L 89.150872 120.634205 
L 89.176253 118.267088 
L 89.191314 115.899972 
L 89.210864 113.532855 
L 89.239535 111.165739 
L 89.261891 108.798622 
L 89.286982 106.431506 
L 89.291664 104.064389 
L 89.299745 101.697273 
L 89.313052 99.330156 
L 89.336062 96.96304 
L 89.3582 94.595923 
L 89.39592 92.228807 
L 89.497504 89.86169 
L 89.882957 87.494574 
L 89.941896 85.127457 
L 90.005905 82.760341 
L 90.019938 80.393224 
L 90.050617 78.026108 
L 90.092523 75.658991 
L 90.132409 73.291875 
L 90.173988 70.924759 
L 90.213366 68.557642 
L 90.26795 66.190526 
L 90.280447 63.823409 
L 90.322655 61.456293 
L 90.361428 59.089176 
L 90.386204 56.72206 
L 90.403455 54.354943 
L 90.417283 51.987827 
L 90.65281 49.62071 
L 90.712076 47.253594 
L 90.738752 44.886477 
L 90.777488 42.519361 
L 90.803631 40.152244 
L 90.825624 37.785128 
L 90.854562 35.418011 
L 90.896165 33.050895 
L 145.994815 30.683778 
L 146.028894 28.316662 
L 146.048988 25.949545 
L 159.070978 23.582429 
L 159.102625 21.215313 
" clip-path="url(#pa9fe509631)" style="fill: none; stroke: #008000; stroke-width: 2; stroke-linecap: square"/>
   </g>
   <g id="line2d_15">
    <path d="M 67.399463 229.521562 
L 67.423597 227.154446 
L 67.499703 224.78733 
L 67.512381 222.420213 
L 67.535161 220.053097 
L 67.553332 217.68598 
L 67.583104 215.318864 
L 67.618151 212.951747 
L 67.654068 210.584631 
L 67.670267 208.217514 
L 79.175838 205.850398 
L 79.189774 203.483281 
L 79.215385 201.116165 
L 79.241818 198.749048 
L 79.275413 196.381932 
L 79.509961 194.014815 
L 79.54277 191.647699 
L 79.554033 189.280582 
L 79.568695 186.913466 
L 79.590942 184.546349 
L 79.607177 182.179233 
L 79.625614 179.812116 
L 79.658326 177.445 
L 79.666915 175.077884 
L 79.676424 172.710767 
L 79.707877 170.343651 
L 79.730693 167.976534 
L 80.069075 165.609418 
L 80.093451 163.242301 
L 80.147395 160.875185 
L 80.198725 158.508068 
L 80.215008 156.140952 
L 80.227263 153.773835 
L 80.253031 151.406719 
L 80.274092 149.039602 
L 80.293884 146.672486 
L 80.338488 144.305369 
L 90.033197 141.938253 
L 90.057331 139.571136 
L 90.145281 137.20402 
L 90.297287 134.836903 
L 90.662368 132.469787 
L 90.678881 130.10267 
L 90.709826 127.735554 
L 90.729811 125.368437 
L 90.741123 123.001321 
L 90.755035 120.634205 
L 90.776907 118.267088 
L 90.7944 115.899972 
L 90.823096 113.532855 
L 90.848283 111.165739 
L 90.869115 108.798622 
L 90.893347 106.431506 
L 90.898089 104.064389 
L 90.907682 101.697273 
L 90.922961 99.330156 
L 90.947314 96.96304 
L 90.964117 94.595923 
L 91.013113 92.228807 
L 91.380129 89.86169 
L 91.472929 87.494574 
L 91.540301 85.127457 
L 91.612729 82.760341 
L 91.632738 80.393224 
L 91.66522 78.026108 
L 91.713199 75.658991 
L 92.064598 73.291875 
L 92.104012 70.924759 
L 92.152971 68.557642 
L 92.206273 66.190526 
L 92.219604 63.823409 
L 92.261292 61.456293 
L 92.300609 59.089176 
L 92.329777 56.72206 
L 92.344899 54.354943 
L 92.360831 51.987827 
L 92.40235 49.62071 
L 92.462209 47.253594 
L 92.497981 44.886477 
L 92.52629 42.519361 
L 92.797409 40.152244 
L 92.820793 37.785128 
L 92.854146 35.418011 
L 92.88739 33.050895 
L 150.117222 30.683778 
L 150.14207 28.316662 
L 150.161523 25.949545 
" clip-path="url(#pa9fe509631)" style="fill: none; stroke: #800080; stroke-width: 2; stroke-linecap: square"/>
   </g>
   <g id="patch_3">
    <path d="M 50.567813 239.936875 
L 50.567813 10.8 
" style="fill: none; stroke: #000000; stroke-width: 0.8; stroke-linejoin: miter; stroke-linecap: square"/>
   </g>
   <g id="patch_4">
    <path d="M 417.092818 239.936875 
L 417.092818 10.8 
" style="fill: none; stroke: #000000; stroke-width: 0.8; stroke-linejoin: miter; stroke-linecap: square"/>
   </g>
   <g id="patch_5">
    <path d="M 50.567813 239.936875 
L 417.092818 239.936875 
" style="fill: none; stroke: #000000; stroke-width: 0.8; stroke-linejoin: miter; stroke-linecap: square"/>
   </g>
   <g id="patch_6">
    <path d="M 50.567813 10.8 
L 417.092818 10.8 
" style="fill: none; stroke: #000000; stroke-width: 0.8; stroke-linejoin: miter; stroke-linecap: square"/>
   </g>
  </g>
  <g id="legend_1">
   <g id="patch_7">
    <path d="M 288.865625 225.4 
L 403.4 225.4 
Q 405.4 225.4 405.4 223.4 
L 405.4 181.260938 
Q 405.4 179.260938 403.4 179.260938 
L 288.865625 179.260938 
Q 286.865625 179.260938 286.865625 181.260938 
L 286.865625 223.4 
Q 286.865625 225.4 288.865625 225.4 
z
" style="fill: #ffffff; opacity: 0.8; stroke: #cccccc; stroke-linejoin: miter"/>
   </g>
   <g id="line2d_16">
    <path d="M 290.865625 187.040625 
L 300.865625 187.040625 
L 310.865625 187.040625 
" style="fill: none; stroke: #0000ff; stroke-width: 2; stroke-linecap: square"/>
   </g>
   <g id="text_15">
    <!-- Tainted Jump -->
    <g transform="translate(318.865625 190.540625) scale(0.1 -0.1)">
     <defs>
      <path id="ArialRoundedMTBold-61" d="M 2597 403 
Q 2288 163 1998 42 
Q 1709 -78 1350 -78 
Q 1022 -78 773 51 
Q 525 181 390 403 
Q 256 625 256 884 
Q 256 1234 478 1481 
Q 700 1728 1088 1813 
Q 1169 1831 1491 1897 
Q 1813 1963 2042 2017 
Q 2272 2072 2541 2150 
Q 2525 2488 2404 2645 
Q 2284 2803 1906 2803 
Q 1581 2803 1417 2712 
Q 1253 2622 1136 2440 
Q 1019 2259 970 2201 
Q 922 2144 763 2144 
Q 619 2144 514 2236 
Q 409 2328 409 2472 
Q 409 2697 568 2909 
Q 728 3122 1065 3259 
Q 1403 3397 1906 3397 
Q 2469 3397 2791 3264 
Q 3113 3131 3245 2843 
Q 3378 2556 3378 2081 
Q 3378 1781 3376 1572 
Q 3375 1363 3372 1106 
Q 3372 866 3451 605 
Q 3531 344 3531 269 
Q 3531 138 3407 30 
Q 3284 -78 3128 -78 
Q 2997 -78 2869 45 
Q 2741 169 2597 403 
z
M 2541 1638 
Q 2353 1569 1995 1492 
Q 1638 1416 1500 1380 
Q 1363 1344 1238 1239 
Q 1113 1134 1113 947 
Q 1113 753 1259 617 
Q 1406 481 1644 481 
Q 1897 481 2111 592 
Q 2325 703 2425 878 
Q 2541 1072 2541 1516 
L 2541 1638 
z
" transform="scale(0.015625)"/>
      <path id="ArialRoundedMTBold-74" d="M 488 3316 
L 581 3316 
L 581 3828 
Q 581 4034 592 4151 
Q 603 4269 653 4353 
Q 703 4441 797 4495 
Q 891 4550 1006 4550 
Q 1169 4550 1300 4428 
Q 1388 4347 1411 4230 
Q 1434 4113 1434 3897 
L 1434 3316 
L 1747 3316 
Q 1928 3316 2023 3230 
Q 2119 3144 2119 3009 
Q 2119 2838 1983 2769 
Q 1847 2700 1594 2700 
L 1434 2700 
L 1434 1131 
Q 1434 931 1448 823 
Q 1463 716 1523 648 
Q 1584 581 1722 581 
Q 1797 581 1925 607 
Q 2053 634 2125 634 
Q 2228 634 2311 551 
Q 2394 469 2394 347 
Q 2394 141 2169 31 
Q 1944 -78 1522 -78 
Q 1122 -78 915 56 
Q 709 191 645 428 
Q 581 666 581 1063 
L 581 2700 
L 469 2700 
Q 284 2700 187 2787 
Q 91 2875 91 3009 
Q 91 3144 192 3230 
Q 294 3316 488 3316 
z
" transform="scale(0.015625)"/>
      <path id="ArialRoundedMTBold-4a" d="M 3163 4097 
L 3163 1697 
Q 3163 1384 3136 1165 
Q 3109 947 3016 722 
Q 2859 344 2500 133 
Q 2141 -78 1625 -78 
Q 1159 -78 848 69 
Q 538 216 347 544 
Q 247 719 184 947 
Q 122 1175 122 1381 
Q 122 1600 244 1715 
Q 366 1831 556 1831 
Q 741 1831 834 1725 
Q 928 1619 978 1394 
Q 1031 1153 1084 1009 
Q 1138 866 1263 762 
Q 1388 659 1619 659 
Q 2234 659 2234 1563 
L 2234 4097 
Q 2234 4378 2357 4518 
Q 2481 4659 2694 4659 
Q 2909 4659 3036 4518 
Q 3163 4378 3163 4097 
z
" transform="scale(0.015625)"/>
      <path id="ArialRoundedMTBold-70" d="M 1228 2913 
L 1228 2809 
Q 1469 3106 1728 3245 
Q 1988 3384 2316 3384 
Q 2709 3384 3040 3181 
Q 3372 2978 3564 2587 
Q 3756 2197 3756 1663 
Q 3756 1269 3645 939 
Q 3534 609 3340 386 
Q 3147 163 2883 42 
Q 2619 -78 2316 -78 
Q 1950 -78 1701 69 
Q 1453 216 1228 500 
L 1228 -781 
Q 1228 -1344 819 -1344 
Q 578 -1344 500 -1198 
Q 422 -1053 422 -775 
L 422 2906 
Q 422 3150 528 3270 
Q 634 3391 819 3391 
Q 1000 3391 1114 3267 
Q 1228 3144 1228 2913 
z
M 2900 1672 
Q 2900 2009 2797 2251 
Q 2694 2494 2511 2623 
Q 2328 2753 2106 2753 
Q 1753 2753 1511 2475 
Q 1269 2197 1269 1656 
Q 1269 1147 1509 864 
Q 1750 581 2106 581 
Q 2319 581 2500 704 
Q 2681 828 2790 1075 
Q 2900 1322 2900 1672 
z
" transform="scale(0.015625)"/>
     </defs>
     <use xlink:href="#ArialRoundedMTBold-54"/>
     <use xlink:href="#ArialRoundedMTBold-61" transform="translate(57.5 0)"/>
     <use xlink:href="#ArialRoundedMTBold-69" transform="translate(116.923828 0)"/>
     <use xlink:href="#ArialRoundedMTBold-6e" transform="translate(144.023438 0)"/>
     <use xlink:href="#ArialRoundedMTBold-74" transform="translate(204.423828 0)"/>
     <use xlink:href="#ArialRoundedMTBold-65" transform="translate(239.824219 0)"/>
     <use xlink:href="#ArialRoundedMTBold-64" transform="translate(299.248047 0)"/>
     <use xlink:href="#ArialRoundedMTBold-20" transform="translate(361.748047 0)"/>
     <use xlink:href="#ArialRoundedMTBold-4a" transform="translate(386.748047 0)"/>
     <use xlink:href="#ArialRoundedMTBold-75" transform="translate(444.072266 0)"/>
     <use xlink:href="#ArialRoundedMTBold-6d" transform="translate(504.472656 0)"/>
     <use xlink:href="#ArialRoundedMTBold-70" transform="translate(592.949219 0)"/>
    </g>
   </g>
   <g id="line2d_17">
    <path d="M 290.865625 201.420313 
L 300.865625 201.420313 
L 310.865625 201.420313 
" style="fill: none; stroke: #008000; stroke-width: 2; stroke-linecap: square"/>
   </g>
   <g id="text_16">
    <!-- Tainted Address -->
    <g transform="translate(318.865625 204.920313) scale(0.1 -0.1)">
     <defs>
      <path id="ArialRoundedMTBold-41" d="M 3431 519 
L 3213 1094 
L 1350 1094 
L 1131 506 
Q 1003 163 912 42 
Q 822 -78 616 -78 
Q 441 -78 306 50 
Q 172 178 172 341 
Q 172 434 203 534 
Q 234 634 306 813 
L 1478 3788 
Q 1528 3916 1598 4095 
Q 1669 4275 1748 4394 
Q 1828 4513 1958 4586 
Q 2088 4659 2278 4659 
Q 2472 4659 2601 4586 
Q 2731 4513 2811 4397 
Q 2891 4281 2945 4148 
Q 3000 4016 3084 3794 
L 4281 838 
Q 4422 500 4422 347 
Q 4422 188 4289 55 
Q 4156 -78 3969 -78 
Q 3859 -78 3781 -39 
Q 3703 0 3650 67 
Q 3597 134 3536 273 
Q 3475 413 3431 519 
z
M 1594 1791 
L 2963 1791 
L 2272 3681 
L 1594 1791 
z
" transform="scale(0.015625)"/>
      <path id="ArialRoundedMTBold-72" d="M 1288 1153 
L 1288 441 
Q 1288 181 1166 51 
Q 1044 -78 856 -78 
Q 672 -78 553 53 
Q 434 184 434 441 
L 434 2816 
Q 434 3391 850 3391 
Q 1063 3391 1156 3256 
Q 1250 3122 1259 2859 
Q 1413 3122 1573 3256 
Q 1734 3391 2003 3391 
Q 2272 3391 2525 3256 
Q 2778 3122 2778 2900 
Q 2778 2744 2670 2642 
Q 2563 2541 2438 2541 
Q 2391 2541 2211 2598 
Q 2031 2656 1894 2656 
Q 1706 2656 1587 2557 
Q 1469 2459 1403 2265 
Q 1338 2072 1313 1805 
Q 1288 1538 1288 1153 
z
" transform="scale(0.015625)"/>
     </defs>
     <use xlink:href="#ArialRoundedMTBold-54"/>
     <use xlink:href="#ArialRoundedMTBold-61" transform="translate(57.5 0)"/>
     <use xlink:href="#ArialRoundedMTBold-69" transform="translate(116.923828 0)"/>
     <use xlink:href="#ArialRoundedMTBold-6e" transform="translate(144.023438 0)"/>
     <use xlink:href="#ArialRoundedMTBold-74" transform="translate(204.423828 0)"/>
     <use xlink:href="#ArialRoundedMTBold-65" transform="translate(239.824219 0)"/>
     <use xlink:href="#ArialRoundedMTBold-64" transform="translate(299.248047 0)"/>
     <use xlink:href="#ArialRoundedMTBold-20" transform="translate(361.748047 0)"/>
     <use xlink:href="#ArialRoundedMTBold-41" transform="translate(386.748047 0)"/>
     <use xlink:href="#ArialRoundedMTBold-64" transform="translate(458.671875 0)"/>
     <use xlink:href="#ArialRoundedMTBold-64" transform="translate(521.171875 0)"/>
     <use xlink:href="#ArialRoundedMTBold-72" transform="translate(583.671875 0)"/>
     <use xlink:href="#ArialRoundedMTBold-65" transform="translate(624.970703 0)"/>
     <use xlink:href="#ArialRoundedMTBold-73" transform="translate(684.394531 0)"/>
     <use xlink:href="#ArialRoundedMTBold-73" transform="translate(738.59375 0)"/>
    </g>
   </g>
   <g id="line2d_18">
    <path d="M 290.865625 215.8 
L 300.865625 215.8 
L 310.865625 215.8 
" style="fill: none; stroke: #800080; stroke-width: 2; stroke-linecap: square"/>
   </g>
   <g id="text_17">
    <!-- Tainted Overflow -->
    <g transform="translate(318.865625 219.3) scale(0.1 -0.1)">
     <defs>
      <path id="ArialRoundedMTBold-4f" d="M 2516 4659 
Q 3228 4659 3739 4370 
Q 4250 4081 4512 3548 
Q 4775 3016 4775 2297 
Q 4775 1766 4631 1331 
Q 4488 897 4200 578 
Q 3913 259 3494 90 
Q 3075 -78 2534 -78 
Q 1997 -78 1572 95 
Q 1147 269 862 584 
Q 578 900 433 1344 
Q 288 1788 288 2303 
Q 288 2831 439 3272 
Q 591 3713 878 4022 
Q 1166 4331 1578 4495 
Q 1991 4659 2516 4659 
z
M 3834 2303 
Q 3834 2806 3671 3175 
Q 3509 3544 3207 3733 
Q 2906 3922 2516 3922 
Q 2238 3922 2002 3817 
Q 1766 3713 1595 3513 
Q 1425 3313 1326 3002 
Q 1228 2691 1228 2303 
Q 1228 1913 1326 1597 
Q 1425 1281 1604 1073 
Q 1784 866 2017 762 
Q 2250 659 2528 659 
Q 2884 659 3182 837 
Q 3481 1016 3657 1387 
Q 3834 1759 3834 2303 
z
" transform="scale(0.015625)"/>
      <path id="ArialRoundedMTBold-76" d="M 1044 2859 
L 1734 922 
L 2478 2944 
Q 2566 3188 2650 3289 
Q 2734 3391 2906 3391 
Q 3069 3391 3183 3281 
Q 3297 3172 3297 3028 
Q 3297 2972 3276 2897 
Q 3256 2822 3229 2756 
Q 3203 2691 3169 2606 
L 2350 575 
Q 2316 488 2261 353 
Q 2206 219 2139 123 
Q 2072 28 1973 -25 
Q 1875 -78 1734 -78 
Q 1553 -78 1445 5 
Q 1338 88 1286 186 
Q 1234 284 1113 575 
L 300 2584 
Q 272 2659 242 2734 
Q 213 2809 192 2887 
Q 172 2966 172 3022 
Q 172 3109 225 3195 
Q 278 3281 372 3336 
Q 466 3391 575 3391 
Q 788 3391 867 3269 
Q 947 3147 1044 2859 
z
" transform="scale(0.015625)"/>
      <path id="ArialRoundedMTBold-66" d="M 372 3316 
L 575 3316 
L 575 3572 
Q 575 3972 676 4208 
Q 778 4444 1020 4551 
Q 1263 4659 1684 4659 
Q 2431 4659 2431 4294 
Q 2431 4175 2353 4090 
Q 2275 4006 2169 4006 
Q 2119 4006 1997 4025 
Q 1875 4044 1791 4044 
Q 1559 4044 1493 3908 
Q 1428 3772 1428 3519 
L 1428 3316 
L 1638 3316 
Q 2125 3316 2125 3022 
Q 2125 2813 1995 2756 
Q 1866 2700 1638 2700 
L 1428 2700 
L 1428 441 
Q 1428 188 1308 55 
Q 1188 -78 997 -78 
Q 816 -78 695 55 
Q 575 188 575 441 
L 575 2700 
L 341 2700 
Q 150 2700 47 2786 
Q -56 2872 -56 3009 
Q -56 3316 372 3316 
z
" transform="scale(0.015625)"/>
      <path id="ArialRoundedMTBold-77" d="M 972 2859 
L 1528 953 
L 2034 2725 
Q 2116 3003 2155 3104 
Q 2194 3206 2301 3298 
Q 2409 3391 2597 3391 
Q 2788 3391 2895 3298 
Q 3003 3206 3047 3098 
Q 3091 2991 3169 2725 
L 3675 953 
L 4238 2859 
Q 4294 3066 4328 3158 
Q 4363 3250 4444 3320 
Q 4525 3391 4678 3391 
Q 4831 3391 4943 3284 
Q 5056 3178 5056 3034 
Q 5056 2903 4959 2638 
L 4263 594 
Q 4172 334 4122 218 
Q 4072 103 3964 12 
Q 3856 -78 3669 -78 
Q 3475 -78 3364 19 
Q 3253 116 3200 256 
Q 3147 397 3084 622 
L 2597 2284 
L 2125 622 
Q 2031 275 1922 98 
Q 1813 -78 1538 -78 
Q 1397 -78 1298 -23 
Q 1200 31 1134 132 
Q 1069 234 1019 373 
Q 969 513 941 594 
L 250 2638 
Q 147 2925 147 3034 
Q 147 3172 256 3281 
Q 366 3391 525 3391 
Q 738 3391 813 3270 
Q 888 3150 972 2859 
z
" transform="scale(0.015625)"/>
     </defs>
     <use xlink:href="#ArialRoundedMTBold-54"/>
     <use xlink:href="#ArialRoundedMTBold-61" transform="translate(57.5 0)"/>
     <use xlink:href="#ArialRoundedMTBold-69" transform="translate(116.923828 0)"/>
     <use xlink:href="#ArialRoundedMTBold-6e" transform="translate(144.023438 0)"/>
     <use xlink:href="#ArialRoundedMTBold-74" transform="translate(204.423828 0)"/>
     <use xlink:href="#ArialRoundedMTBold-65" transform="translate(239.824219 0)"/>
     <use xlink:href="#ArialRoundedMTBold-64" transform="translate(299.248047 0)"/>
     <use xlink:href="#ArialRoundedMTBold-20" transform="translate(361.748047 0)"/>
     <use xlink:href="#ArialRoundedMTBold-4f" transform="translate(386.748047 0)"/>
     <use xlink:href="#ArialRoundedMTBold-76" transform="translate(465.947266 0)"/>
     <use xlink:href="#ArialRoundedMTBold-65" transform="translate(518.771484 0)"/>
     <use xlink:href="#ArialRoundedMTBold-72" transform="translate(578.195312 0)"/>
     <use xlink:href="#ArialRoundedMTBold-66" transform="translate(621.994141 0)"/>
     <use xlink:href="#ArialRoundedMTBold-6c" transform="translate(656.544922 0)"/>
     <use xlink:href="#ArialRoundedMTBold-6f" transform="translate(683.644531 0)"/>
     <use xlink:href="#ArialRoundedMTBold-77" transform="translate(744.044922 0)"/>
    </g>
   </g>
  </g>
 </g>
 <defs>
  <clipPath id="pa9fe509631">
   <rect x="50.567813" y="10.8" width="366.525005" height="229.136875"/>
  </clipPath>
 </defs>
</svg>
